<svg xmlns="http://www.w3.org/2000/svg" viewBox="0 0 212.71 223.98"><defs><style>.cls-1{fill:#0069ff;}</style></defs><g id="Layer_2" data-name="Layer 2"><g id="Layer_1-2" data-name="Layer 1"><path class="cls-1" d="M60.72,99.86q-27.09,0-54.18,0c-6,0-6.52-.57-6.52-6.58Q.05,54,0,14.75C0,5.07,4.53.18,14.21.15,45.59.07,77-.21,108.34.31c30.27.5,55.39,13.2,75.36,35.51,21.19,23.67,30.24,51.74,28.88,83.58-1.83,42.82-31.08,83.57-71.41,98.19A105.82,105.82,0,0,1,104.81,224q-34.22,0-68.42,0c-1.54,0-3.08-.71-4.63-1.09,1-1.36,1.7-3.08,3-4q33.36-25.11,66.86-50c9.19-6.87,18.62-13.45,27.48-20.73,8.53-7,12.3-16.52,10.06-27.45-2.14-10.41-8.87-17.23-19.27-20a26.63,26.63,0,0,0-6.8-.68C95.62,99.83,78.17,99.86,60.72,99.86Z"/><path class="cls-1" d="M107.59,129.08c-1.17,1.08-2.26,2.28-3.53,3.24q-48.67,36.84-97.43,73.6c-1.43,1.07-3.45,1.37-5.2,2C1,206.27.1,204.59.09,202.9,0,180.4,0,157.89,0,135.39c0-6.08,1.87-8.15,7.8-8.16q47.76-.08,95.52,0a31.6,31.6,0,0,1,3.85.47Z"/></g></g></svg>